<?xml version="1.0" encoding="UTF-8" standalone="no"?>
<svg
   xmlns:dc="http://purl.org/dc/elements/1.1/"
   xmlns:cc="http://creativecommons.org/ns#"
   xmlns:rdf="http://www.w3.org/1999/02/22-rdf-syntax-ns#"
   xmlns:svg="http://www.w3.org/2000/svg"
   xmlns="http://www.w3.org/2000/svg"
   viewBox="0 0 900 900"
   height="900"
   width="900"
   xml:space="preserve"
   id="svg2"
   version="1.1"><metadata
     id="metadata8"><rdf:RDF><cc:Work
         rdf:about=""><dc:format>image/svg+xml</dc:format><dc:type
           rdf:resource="http://purl.org/dc/dcmitype/StillImage" /></cc:Work></rdf:RDF></metadata><defs
     id="defs6" /><g
     transform="matrix(1.3333333,0,0,-1.3333333,0,900)"
     id="g10"><g
       transform="scale(0.1)"
       id="g12"><path
         id="path14"
         style="fill:#8bc0de;fill-opacity:1;fill-rule:nonzero;stroke:none"
         d="m 3892.19,5217.29 c 170.97,52.09 335.13,130.21 502.69,228.71 -24.9,-15.85 -45.29,-38.5 -58.87,-65.67 -88.32,-176.62 -133.59,-374.76 -136.99,-576.28 -244.56,-148.32 -535.53,-230.98 -824.24,-229.84 -288.72,-1.14 -579.69,80.39 -824.25,228.7 -3.39,202.66 -48.67,400.8 -136.99,577.42 -13.58,26.04 -32.83,47.55 -55.47,63.4 167.56,-97.37 330.59,-174.35 499.29,-226.44 169.82,-52.07 344.19,-76.99 517.42,-78.12 174.36,1.13 347.59,26.05 517.41,78.12" /><path
         id="path16"
         style="fill:#8bc0de;fill-opacity:1;fill-rule:nonzero;stroke:none"
         d="m 3375,5435.03 c 213.68,0 386.91,340.57 386.91,553.83 0,213.26 -173.23,386.14 -386.91,386.14 -213.68,0 -386.91,-172.88 -386.91,-386.14 0,-213.26 173.23,-553.83 386.91,-553.83" /><path
         id="path18"
         style="fill:#6e7490;fill-opacity:1;fill-rule:nonzero;stroke:none"
         d="m 1052.64,3515.61 c 3.4,3.39 6.8,5.66 11.32,7.92 l 6.8,3.4 c -5.67,-3.4 -12.45,-6.8 -18.12,-11.32" /><path
         id="path20"
         style="fill:#142a36;fill-opacity:1;fill-rule:nonzero;stroke:none"
         d="m 2550.53,4802.91 c -173.22,104.16 -322.67,242.29 -431.37,407.59 -19.24,28.3 -28.3,60.01 -28.3,91.71 0,1.13 0,1.13 0,2.26 0,11.32 1.13,22.65 3.4,33.97 2.26,9.06 4.53,18.12 7.93,26.04 0,2.26 1.13,3.4 2.27,5.66 4.53,10.19 9.05,19.25 15.84,28.31 0,1.12 1.13,2.26 1.13,2.26 2.26,4.53 5.66,9.06 9.07,12.46 l 10.18,10.18 c 7.92,7.93 15.85,14.72 24.92,21.51 0,0 1.13,0 1.13,1.14 9.04,5.66 18.11,10.19 29.42,14.72 1.14,1.13 2.28,1.13 3.41,2.26 1.13,0 2.26,1.13 3.4,1.13 5.65,2.27 11.31,3.4 16.98,4.53 5.65,2.26 10.19,3.4 14.71,3.4 7.93,1.13 15.86,2.26 24.92,2.26 h 10.18 c 5.67,0 11.32,-1.13 16.99,-2.26 13.58,-1.14 28.3,-5.66 40.76,-11.32 6.79,-2.27 13.58,-5.66 20.37,-10.2 3.4,-1.13 6.8,-3.39 10.2,-6.79 22.64,-15.85 41.89,-37.36 55.47,-63.4 88.32,-176.62 133.6,-374.76 136.99,-577.42" /><path
         id="path22"
         style="fill:#2a687b;fill-opacity:1;fill-rule:nonzero;stroke:none"
         d="m 2550.53,4802.91 c 5.67,-285.31 -69.06,-578.55 -213.97,-828.77 -143.79,-251.35 -360.04,-463.07 -611.4,-600.06 h -1.13 c -176.62,98.5 -369.1,158.51 -566.1,170.97 -29.44,2.26 -57.74,-3.41 -83.78,-16.99 168.69,96.23 317.02,199.27 447.22,319.28 129.08,121.15 237.76,259.27 324.94,409.85 87.18,150.59 152.85,313.62 192.47,486.85 39.64,173.22 54.34,354.37 52.08,550.24 v 7.93 c 0,-31.7 9.06,-63.41 28.3,-91.71 108.7,-165.3 258.15,-303.43 431.37,-407.59" /><path
         id="path24"
         style="fill:#2a687b;fill-opacity:1;fill-rule:nonzero;stroke:none"
         d="m 1590.96,4405.01 c 106.84,185.06 -101.49,505.36 -286.18,611.99 -184.69,106.63 -421.018,43.05 -527.858,-142 -106.836,-185.05 -43.734,-421.51 140.957,-528.14 184.691,-106.63 566.241,-126.9 673.081,58.15" /><path
         id="path26"
         style="fill:#6e7490;fill-opacity:1;fill-rule:nonzero;stroke:none"
         d="m 2193.9,1289.71 c -3.4,0 -5.66,2.26 -9.06,3.39 -0.73,0.49 -1.51,0.97 -2.31,1.45 3.79,-1.96 7.58,-3.58 11.37,-4.84 m -20.28,10.12 c -0.03,0.02 -0.07,0.05 -0.1,0.07 0.03,-0.02 0.07,-0.05 0.1,-0.07" /><path
         id="path28"
         style="fill:#d06a1c;fill-opacity:1;fill-rule:nonzero;stroke:none"
         d="m 1724.03,3374.08 c -175.49,-98.5 -369.1,-158.51 -566.1,-169.83 -33.96,-2.26 -66.79,6.8 -93.97,22.65 -1.12,0 -1.12,1.13 -2.25,1.13 -5.67,3.39 -12.47,7.92 -17,12.45 -6.79,4.53 -12.44,10.19 -18.11,15.85 -3.4,2.27 -5.66,4.53 -6.8,6.79 -5.65,5.67 -10.18,11.33 -13.57,18.12 -4.53,6.79 -9.062,13.59 -12.464,20.38 -4.536,10.19 -7.918,20.38 -11.317,30.57 -2.273,10.19 -4.523,21.52 -4.523,32.83 -1.133,11.32 0,23.78 1.121,33.97 1.129,6.79 2.269,14.72 4.535,22.64 2.266,6.8 4.516,13.59 7.922,20.38 2.262,5.66 4.527,11.33 7.926,16.99 1.13,1.13 1.13,2.26 2.27,3.39 5.65,9.06 11.32,16.99 18.1,23.78 2.27,3.39 5.67,7.93 9.07,10.18 4.54,5.67 10.19,10.2 16.97,14.72 2.27,2.27 4.54,3.4 6.8,4.54 5.67,4.52 12.45,7.92 18.12,11.32 1.12,0 2.25,1.13 3.39,1.13 26.04,13.58 54.34,19.25 83.78,16.99 197,-12.46 389.48,-72.47 566.1,-170.97" /><path
         id="path30"
         style="fill:#6e7490;fill-opacity:1;fill-rule:nonzero;stroke:none"
         d="m 982.449,3332.19 c -5.656,21.52 -6.789,44.15 -3.402,66.8 -0.789,-7.16 -1.582,-15.45 -1.59,-23.67 -0.004,-3.48 0.133,-6.94 0.469,-10.3 0,-11.31 2.25,-22.64 4.523,-32.83" /><path
         id="path32"
         style="fill:#f4981e;fill-opacity:1;fill-rule:nonzero;stroke:none"
         d="m 2550.53,1946.38 c -173.22,-104.16 -322.67,-241.15 -431.37,-406.46 -18.1,-28.3 -28.3,-60.01 -28.3,-92.84 v 9.06 c 2.26,194.74 -12.44,375.89 -52.08,549.11 -39.62,173.24 -105.29,336.27 -192.47,487.98 -87.18,149.45 -195.86,287.58 -324.94,408.72 -130.2,121.15 -280.78,225.31 -450.61,320.41 l -6.8,4.54 c 27.18,-15.85 60.01,-24.91 93.97,-22.65 197,11.32 390.61,71.33 566.1,169.83 h 1.13 c 250.22,-135.86 467.61,-347.58 611.4,-598.93 144.91,-249.08 220.78,-542.32 213.97,-828.77" /><path
         id="path34"
         style="fill:#f4981e;fill-opacity:1;fill-rule:nonzero;stroke:none"
         d="m 1590.96,2344.99 c -106.84,185.05 -488.39,164.78 -673.081,58.15 C 733.188,2296.51 670.086,2060.05 776.926,1875 c 106.836,-185.05 343.164,-248.63 527.854,-142 184.69,106.63 393.02,426.94 286.18,611.99" /><path
         id="path36"
         style="fill:#b4941c;fill-opacity:1;fill-rule:nonzero;stroke:none"
         d="m 2550.53,1946.38 c -3.39,-201.53 -48.67,-399.66 -136.99,-577.42 -12.45,-26.04 -31.7,-46.41 -53.21,-62.27 -1.13,0 -3.39,-1.13 -4.53,-2.26 0,-1.14 -1.13,-1.14 -1.13,-1.14 l -6.8,-4.53 c -13.58,-7.92 -27.17,-13.58 -40.75,-16.98 -5.66,-2.26 -11.33,-3.39 -18.13,-4.53 -9.04,-1.13 -16.97,-2.26 -24.91,-2.26 -16.97,0 -32.82,2.26 -47.54,6.79 -7.93,2.27 -15.85,4.53 -22.64,7.93 -6.8,2.26 -13.59,5.66 -20.38,10.19 -4.53,2.26 -9.05,5.66 -13.59,9.06 -12.46,9.05 -22.64,19.24 -32.84,30.56 -7.93,11.33 -14.71,22.65 -20.37,35.1 -1.13,2.27 -2.26,5.66 -3.4,7.93 -4.53,13.58 -9.07,27.17 -11.33,40.76 -1.13,7.92 -1.13,15.85 -1.13,23.77 0,32.84 10.2,64.54 28.3,92.84 108.7,165.31 258.15,302.3 431.37,406.46" /><path
         id="path38"
         style="fill:#6e7490;fill-opacity:1;fill-rule:nonzero;stroke:none"
         d="m 2116.14,1356.5 c -0.49,0.74 -0.98,1.5 -1.5,2.28 -1.26,2.1 -2.21,4.05 -3.08,5.96 1.46,-2.79 2.99,-5.53 4.58,-8.24" /><path
         id="path40"
         style="fill:#5f6162;fill-opacity:1;fill-rule:nonzero;stroke:none"
         d="m 2127.09,1339.52 c -3.93,5.62 -7.58,11.23 -10.95,16.98 3.81,-5.83 6.94,-10.96 10.95,-16.98 m -15.53,25.22 c -1.7,3.23 -3.31,6.51 -4.84,9.88 2.14,-3.55 3.37,-6.66 4.84,-9.88" /><path
         id="path42"
         style="fill:#e6c10e;fill-opacity:1;fill-rule:nonzero;stroke:none"
         d="m 4394.88,1303.29 c -167.56,99.63 -331.72,177.76 -502.69,229.84 -169.82,52.08 -343.05,76.99 -517.41,76.99 -173.23,0 -347.6,-24.91 -517.42,-76.99 -168.7,-52.08 -329.46,-129.07 -497.03,-226.44 21.51,15.85 40.76,36.23 53.21,62.27 88.32,177.76 133.6,375.89 136.99,577.42 244.56,148.32 535.53,230.97 824.25,229.84 289.85,1.13 580.81,-81.52 825.37,-229.84 3.4,-202.66 47.54,-399.66 135.86,-577.42 13.58,-26.04 33.97,-48.68 58.87,-65.67" /><path
         id="path44"
         style="fill:#6e7490;fill-opacity:1;fill-rule:nonzero;stroke:none"
         d="m 4583.95,1304.43 c 26.04,18.12 46.43,43.02 58.88,71.32 -11.32,-28.3 -31.7,-53.2 -58.88,-71.32" /><path
         id="path46"
         style="fill:#e6c10e;fill-opacity:1;fill-rule:nonzero;stroke:none"
         d="m 3375,1314.97 c -213.68,0 -386.91,-340.572 -386.91,-553.829 C 2988.09,547.879 3161.32,375 3375,375 c 213.68,0 386.91,172.879 386.91,386.141 0,213.257 -173.23,553.829 -386.91,553.829" /><path
         id="path48"
         style="fill:#97391d;fill-opacity:1;fill-rule:nonzero;stroke:none"
         d="m 4658.68,1456.14 v -14.72 c 0,-9.06 -1.12,-16.98 -2.25,-24.91 -2.27,-14.72 -6.8,-28.3 -13.6,-40.76 -12.45,-28.3 -32.84,-53.21 -58.88,-71.32 -15.84,-10.19 -32.82,-18.12 -52.07,-23.78 -5.67,-2.26 -12.46,-3.4 -19.24,-3.4 -6.8,-1.13 -14.74,-2.26 -22.66,-2.26 h -1.13 c -14.72,0 -29.42,2.26 -44.16,5.66 -18.1,5.66 -33.96,12.46 -49.81,22.64 -24.9,16.99 -45.29,39.63 -58.87,65.67 -88.32,177.76 -132.46,374.76 -135.86,577.42 173.23,-104.16 322.67,-242.29 431.36,-406.46 15.85,-26.03 24.92,-55.47 27.17,-83.78" /><path
         id="path50"
         style="fill:#de4e26;fill-opacity:1;fill-rule:nonzero;stroke:none"
         d="m 5592.74,3204.25 c 29.44,-1.13 60.01,4.53 86.05,18.11 -169.83,-96.23 -319.27,-199.26 -449.48,-320.41 -130.2,-121.14 -238.89,-259.27 -326.07,-408.72 -86.05,-151.71 -151.72,-314.74 -191.33,-487.98 -40.78,-173.22 -55.48,-354.37 -53.23,-549.11 -2.25,28.31 -11.32,57.75 -27.17,83.78 -108.69,164.17 -258.13,302.3 -431.36,406.46 -6.8,286.45 67.93,579.69 212.84,828.77 143.79,251.35 360.04,461.93 610.27,600.07 177.75,-98.51 372.48,-158.51 569.48,-170.97" /><path
         id="path52"
         style="fill:#de4e26;fill-opacity:1;fill-rule:nonzero;stroke:none"
         d="m 5159.04,2344.99 c -106.85,-185.06 101.48,-505.36 286.18,-611.99 184.68,-106.63 421.02,-43.05 527.86,142 106.83,185.05 43.73,421.51 -140.96,528.14 -184.69,106.63 -566.24,126.9 -673.08,-58.15" /><path
         id="path54"
         style="fill:#286e7a;fill-opacity:1;fill-rule:nonzero;stroke:none"
         d="m 5772.76,3370.68 c 0,-11.32 -1.14,-22.64 -4.52,-32.83 -1.13,-11.32 -5.67,-23.78 -12.46,-35.1 -1.13,-4.53 -3.4,-9.05 -6.79,-13.58 0,-2.27 -1.14,-4.53 -3.41,-5.66 -2.26,-4.53 -4.51,-7.93 -7.91,-11.33 -1.14,-3.39 -3.4,-5.66 -6.79,-7.92 -2.26,-3.4 -5.67,-6.8 -9.07,-10.19 -12.45,-13.59 -27.17,-23.78 -43.02,-31.71 -26.04,-13.58 -56.61,-19.24 -86.05,-18.11 -197,12.46 -391.73,72.46 -569.48,170.97 177.75,97.36 371.35,157.37 569.48,169.83 30.57,2.26 61.14,-4.54 86.05,-18.12 5.66,-2.27 10.19,-5.66 15.85,-9.06 9.07,-5.66 16.99,-11.32 24.91,-19.25 6.79,-5.66 12.46,-12.45 19.25,-20.38 22.65,-30.57 35.09,-69.06 33.96,-107.56" /><path
         id="path56"
         style="fill:#215369;fill-opacity:1;fill-rule:nonzero;stroke:none"
         d="m 4658.68,5303.34 v -9.06 c 0,-1.12 0,-1.12 0,-2.26 -1.12,-28.3 -11.32,-56.61 -27.17,-81.52 -108.69,-165.3 -259.26,-302.3 -432.49,-406.45 3.4,201.52 48.67,399.66 136.99,576.28 13.58,27.17 33.97,49.82 58.87,65.67 2.27,1.13 4.54,3.39 7.94,4.52 6.78,4.54 13.57,7.93 20.37,10.2 44.16,19.24 95.1,18.11 141.52,-4.53 2.27,-1.13 4.54,-2.27 6.81,-3.4 12.43,-6.79 22.63,-14.72 32.82,-23.78 5.65,-5.66 11.32,-11.32 15.85,-16.98 10.19,-11.32 18.1,-24.91 23.77,-38.49 6.8,-14.72 11.34,-29.44 13.6,-44.16 1.12,-9.05 1.12,-16.98 1.12,-26.04" /><path
         id="path58"
         style="fill:#3ca2af;fill-opacity:1;fill-rule:nonzero;stroke:none"
         d="m 5678.79,3526.93 c -24.91,13.58 -55.48,20.38 -86.05,18.12 -198.13,-12.46 -391.73,-72.47 -569.48,-169.83 -250.23,136.99 -466.48,348.71 -610.27,598.92 -144.91,250.22 -220.77,543.46 -213.97,829.91 173.23,104.15 323.8,241.15 432.49,406.45 15.85,24.91 26.05,53.22 27.17,81.52 -1.12,-194.74 13.59,-375.89 53.23,-547.98 39.61,-173.23 105.28,-336.26 191.33,-486.85 87.18,-150.58 195.87,-288.7 326.07,-409.85 130.21,-121.15 279.65,-224.17 449.48,-320.41" /><path
         id="path60"
         style="fill:#6e7490;fill-opacity:1;fill-rule:nonzero;stroke:none"
         d="m 5694.64,3517.87 c -5.08,3.05 -9.24,6.09 -14.13,8.32 l 6.2,-2.66 c 3.4,-1.13 5.67,-3.4 7.93,-5.66" /><path
         id="path62"
         style="fill:#3a5a75;fill-opacity:1;fill-rule:nonzero;stroke:none"
         d="m 5694.64,3517.87 c -5.08,3.05 -9.24,6.09 -14.13,8.32 v 0 c 4.89,-2.23 9.05,-5.27 14.13,-8.32 v 0 m -14.13,8.32 -1.72,0.74 c 0.59,-0.24 1.16,-0.48 1.72,-0.74" /><path
         id="path64"
         style="fill:#6e7490;fill-opacity:1;fill-rule:nonzero;stroke:none"
         d="m 5748.99,3289.17 c 3.39,4.53 5.66,9.05 6.79,13.58 -1.13,-4.53 -2.26,-7.92 -4.53,-11.32 0,-1.13 -1.13,-1.13 -2.26,-2.26" /><path
         id="path66"
         style="fill:#3ca2af;fill-opacity:1;fill-rule:nonzero;stroke:none"
         d="m 5159.04,4405.01 c 106.84,-185.05 488.39,-164.78 673.08,-58.15 184.69,106.63 247.79,343.09 140.95,528.14 -106.83,185.05 -343.17,248.63 -527.85,142 -184.7,-106.63 -393.02,-426.94 -286.18,-611.99" /></g></g></svg>