<?xml version="1.0" encoding="UTF-8" standalone="no"?>
<svg
   xmlns:dc="http://purl.org/dc/elements/1.1/"
   xmlns:cc="http://creativecommons.org/ns#"
   xmlns:rdf="http://www.w3.org/1999/02/22-rdf-syntax-ns#"
   xmlns:svg="http://www.w3.org/2000/svg"
   xmlns="http://www.w3.org/2000/svg"
   viewBox="0 0 1600 900"
   height="900"
   width="1600"
   xml:space="preserve"
   id="svg2"
   version="1.1"><metadata
     id="metadata8"><rdf:RDF><cc:Work
         rdf:about=""><dc:format>image/svg+xml</dc:format><dc:type
           rdf:resource="http://purl.org/dc/dcmitype/StillImage" /></cc:Work></rdf:RDF></metadata><defs
     id="defs6" /><g
     transform="matrix(1.3333333,0,0,-1.3333333,0,900)"
     id="g10"><g
       transform="scale(0.1)"
       id="g12"><path
         id="path14"
         style="fill:#7c9aae;fill-opacity:1;fill-rule:nonzero;stroke:none"
         d="m 3051.45,2728.02 c 0,34.82 -22.29,56.18 -64.27,56.18 h -114.84 v -112.32 h 114.84 c 41.98,0 64.27,21.32 64.27,56.14 z m -179.11,83.14 h 104.12 c 40.3,0 60.42,20.89 60.42,53.98 0,33.5 -20.12,53.96 -60.42,53.96 H 2872.34 Z M 3084,2723.25 c 0,-48.75 -34.68,-80.09 -92.97,-80.09 h -151.25 v 304.65 h 140.53 c 57,0 89.14,-30.44 89.14,-77.89 0,-35.25 -14.56,-58.76 -42.42,-70.5 36.42,-9.58 56.97,-35.25 56.97,-76.17" /><path
         id="path16"
         style="fill:#7c9aae;fill-opacity:1;fill-rule:nonzero;stroke:none"
         d="m 3297.29,2836.39 v -193.23 h -27.42 v 35.25 c -13.73,-24.8 -38.56,-39.59 -70.3,-39.59 -45.39,0 -77.13,32.2 -77.13,82.7 v 114.87 h 30.87 v -108.8 c 0,-36.54 22.72,-60.05 54.85,-60.05 33.86,0 58.27,24.8 58.27,63.1 v 105.75 h 30.86" /><path
         id="path18"
         style="fill:#7c9aae;fill-opacity:1;fill-rule:nonzero;stroke:none"
         d="m 3374.73,2643.16 h -31.27 v 193.23 h 31.27 z m -34.29,269.83 c 0,10.92 7.72,19.17 18.44,19.17 11.14,0 18.83,-8.25 18.83,-19.17 0,-10.41 -7.69,-18.7 -18.83,-18.7 -10.72,0 -18.44,8.29 -18.44,18.7" /><path
         id="path20"
         style="fill:#7c9aae;fill-opacity:1;fill-rule:nonzero;stroke:none"
         d="m 3454.38,2643.16 h -31.26 v 304.65 h 31.26 v -304.65" /><path
         id="path22"
         style="fill:#7c9aae;fill-opacity:1;fill-rule:nonzero;stroke:none"
         d="m 3664.73,2739.79 c 0,41.36 -30.84,71.8 -71.57,71.8 -40.69,0 -71.56,-30.44 -71.56,-71.8 0,-41.35 30.87,-71.82 71.56,-71.82 40.73,0 71.57,30.47 71.57,71.82 z m 30.84,208.02 v -304.65 h -27.43 v 39.6 c -15.85,-26.96 -43.71,-43.94 -78.82,-43.94 -56.15,0 -98.56,43.08 -98.56,100.97 0,57.87 42.41,100.98 98.56,100.98 34.28,0 60.42,-15.69 75.41,-41.35 v 148.39 h 30.84" /><path
         id="path24"
         style="fill:#7c9aae;fill-opacity:1;fill-rule:nonzero;stroke:none"
         d="m 3773.03,2643.16 h -31.27 v 193.23 h 31.27 z m -34.29,269.83 c 0,10.92 7.72,19.17 18.44,19.17 11.14,0 18.84,-8.25 18.84,-19.17 0,-10.41 -7.7,-18.7 -18.84,-18.7 -10.72,0 -18.44,8.29 -18.44,18.7" /><path
         id="path26"
         style="fill:#7c9aae;fill-opacity:1;fill-rule:nonzero;stroke:none"
         d="m 3994.11,2758.07 v -114.91 h -30.84 v 108.8 c 0,36.58 -22.71,60.09 -54.84,60.09 -33.86,0 -58.3,-24.83 -58.3,-63.14 v -105.75 h -30.84 v 193.23 h 27.42 v -35.25 c 13.7,24.84 38.57,39.63 70.27,39.63 45.43,0 77.13,-32.23 77.13,-82.7" /><path
         id="path28"
         style="fill:#7c9aae;fill-opacity:1;fill-rule:nonzero;stroke:none"
         d="m 4200.11,2741.52 c 0,40.92 -30.84,70.07 -71.57,70.07 -40.68,0 -71.56,-29.15 -71.56,-70.07 0,-40.89 30.88,-70.07 71.56,-70.07 40.73,0 71.57,29.18 71.57,70.07 z m 30.84,94.87 v -188.02 c 0,-57.44 -44.1,-96.6 -102.41,-96.6 -51.82,0 -92.11,27.86 -98.11,74.42 h 30.4 c 5.58,-30.91 32.6,-47.46 67.71,-47.46 40.73,0 71.57,26.56 71.57,67.91 v 37.44 c -14.99,-25.23 -41.12,-40.92 -75.41,-40.92 -56.14,0 -98.56,41.79 -98.56,98.79 0,57.04 42.42,98.82 98.56,98.82 35.12,0 62.98,-16.55 78.83,-43.11 v 38.73 h 27.42" /><path
         id="path30"
         style="fill:#7c9aae;fill-opacity:1;fill-rule:nonzero;stroke:none"
         d="m 4366.21,2724.54 h 32.17 c 6.83,-36.11 44.54,-57 91.69,-57 51.4,0 82.7,25.23 82.7,57.43 0,37.87 -36.44,52.69 -88.7,59.66 -58.27,8.25 -107.15,28.72 -107.15,85.72 0,47.88 40.3,81.84 111,81.84 64.26,0 108.4,-30.9 115.69,-85.75 h -32.56 c -6.43,36.14 -38.57,57.04 -83.57,57.04 -50.97,0 -77.99,-23.09 -77.99,-52.7 0,-38.3 41.15,-51.33 95.14,-58.3 57.43,-7.39 100.71,-30.9 100.71,-87.04 0,-50.51 -44.57,-86.62 -115.7,-86.62 -66.42,0 -116.13,30.91 -123.43,85.72" /><path
         id="path32"
         style="fill:#7c9aae;fill-opacity:1;fill-rule:nonzero;stroke:none"
         d="m 4698.58,2809.43 v -103.59 c 0,-25.24 13.73,-39.17 38.58,-39.17 22.28,0 36,6.11 36,6.11 v -26.14 c 0,0 -12.43,-7.82 -41.15,-7.82 -40.68,0 -64.27,23.48 -64.27,63.53 v 107.08 h -43.7 v 26.96 h 43.7 v 50.51 h 30.84 v -50.51 h 74.58 v -26.96 h -74.58" /><path
         id="path34"
         style="fill:#7c9aae;fill-opacity:1;fill-rule:nonzero;stroke:none"
         d="m 4917.92,2840.77 v -31.34 h -7.27 c -42.88,0 -70.3,-25.7 -70.3,-77.03 v -89.24 h -30.84 v 193.23 h 25.7 v -40.02 c 13.74,29.15 40.73,44.4 77.56,44.4 h 5.15" /><path
         id="path36"
         style="fill:#7c9aae;fill-opacity:1;fill-rule:nonzero;stroke:none"
         d="m 5087.14,2739.79 c 0,41.36 -30.84,71.8 -71.56,71.8 -40.7,0 -71.57,-30.44 -71.57,-71.8 0,-41.35 30.87,-71.82 71.57,-71.82 40.72,0 71.56,30.47 71.56,71.82 z m -173.97,0 c 0,57.44 44.14,100.98 102.41,100.98 58.26,0 102.4,-43.54 102.4,-100.98 0,-57.46 -44.14,-100.97 -102.4,-100.97 -58.27,0 -102.41,43.51 -102.41,100.97" /><path
         id="path38"
         style="fill:#7c9aae;fill-opacity:1;fill-rule:nonzero;stroke:none"
         d="m 5326.96,2758.07 v -114.91 h -30.84 v 108.8 c 0,36.58 -22.71,60.09 -54.85,60.09 -33.86,0 -58.3,-24.83 -58.3,-63.14 v -105.75 h -30.84 v 193.23 h 27.43 v -35.25 c 13.73,24.84 38.57,39.63 70.26,39.63 45.43,0 77.14,-32.23 77.14,-82.7" /><path
         id="path40"
         style="fill:#7c9aae;fill-opacity:1;fill-rule:nonzero;stroke:none"
         d="m 5532.99,2741.52 c 0,40.92 -30.84,70.07 -71.56,70.07 -40.69,0 -71.57,-29.15 -71.57,-70.07 0,-40.89 30.88,-70.07 71.57,-70.07 40.72,0 71.56,29.18 71.56,70.07 z m 30.84,94.87 v -188.02 c 0,-57.44 -44.1,-96.6 -102.4,-96.6 -51.83,0 -92.12,27.86 -98.13,74.42 h 30.41 c 5.58,-30.91 32.6,-47.46 67.72,-47.46 40.72,0 71.56,26.56 71.56,67.91 v 37.44 c -14.99,-25.23 -41.12,-40.92 -75.41,-40.92 -56.14,0 -98.56,41.79 -98.56,98.79 0,57.04 42.42,98.82 98.56,98.82 35.12,0 62.98,-16.55 78.83,-43.11 v 38.73 h 27.42" /><path
         id="path42"
         style="fill:#7c9aae;fill-opacity:1;fill-rule:nonzero;stroke:none"
         d="m 5630.15,2759.36 h 140.97 c -7.26,33.09 -35.11,55.71 -70.7,55.71 -35.55,0 -62.98,-22.62 -70.27,-55.71 z m 171.84,-23.05 h -173.56 c 0.86,-40.92 31.3,-70.07 72.42,-70.07 29.58,0 53.55,15.66 65.13,39.6 h 30.88 c -13.31,-39.6 -50.15,-67.02 -96.44,-67.02 -58.26,0 -102.4,43.51 -102.4,100.97 0,57.44 44.14,100.98 102.4,100.98 58.26,0 102,-43.54 102,-100.98 0,-1.75 -0.43,-3.48 -0.43,-3.48" /><path
         id="path44"
         style="fill:#7c9aae;fill-opacity:1;fill-rule:nonzero;stroke:none"
         d="m 5944.98,2840.77 v -31.34 h -7.26 c -42.88,0 -70.3,-25.7 -70.3,-77.03 v -89.24 h -30.84 v 193.23 h 25.7 v -40.02 c 13.73,29.15 40.72,44.4 77.56,44.4 h 5.14" /><path
         id="path46"
         style="fill:#7c9aae;fill-opacity:1;fill-rule:nonzero;stroke:none"
         d="m 6209.25,2952.19 c 71.99,0 125.11,-42.21 143.98,-106.21 h -33.43 c -18,44.4 -58.7,74.44 -110.55,74.44 -69.42,0 -123,-54.41 -123,-124.91 0,-70.54 53.58,-124.92 123,-124.92 51.85,0 92.55,30.04 110.55,74.41 h 33.43 c -18.87,-63.97 -71.99,-106.18 -143.98,-106.18 -88.28,0 -155.57,67.88 -155.57,156.69 0,88.77 67.29,156.68 155.57,156.68" /><path
         id="path48"
         style="fill:#7c9aae;fill-opacity:1;fill-rule:nonzero;stroke:none"
         d="m 6553.62,2739.79 c 0,41.36 -30.84,71.8 -71.56,71.8 -40.69,0 -71.56,-30.44 -71.56,-71.8 0,-41.35 30.87,-71.82 71.56,-71.82 40.72,0 71.56,30.47 71.56,71.82 z m -173.96,0 c 0,57.44 44.14,100.98 102.4,100.98 58.3,0 102.4,-43.54 102.4,-100.98 0,-57.46 -44.1,-100.97 -102.4,-100.97 -58.26,0 -102.4,43.51 -102.4,100.97" /><path
         id="path50"
         style="fill:#7c9aae;fill-opacity:1;fill-rule:nonzero;stroke:none"
         d="m 6937.46,2758.07 v -114.91 h -30.87 v 108.8 c 0,36.58 -22.68,60.09 -54.85,60.09 -33.82,0 -58.26,-24.83 -58.26,-63.14 v -105.75 h -30.84 v 108.8 c 0,36.58 -22.72,60.09 -54.86,60.09 -33.85,0 -58.29,-24.83 -58.29,-63.14 v -105.75 h -30.84 v 193.23 h 27.42 v -35.25 c 13.73,24.84 38.57,39.63 70.28,39.63 32.99,0 59.12,-17.41 70.69,-46.16 12.87,28.75 39,46.16 73.29,46.16 45.43,0 77.13,-32.23 77.13,-82.7" /><path
         id="path52"
         style="fill:#7c9aae;fill-opacity:1;fill-rule:nonzero;stroke:none"
         d="m 7298.09,2758.07 v -114.91 h -30.84 v 108.8 c 0,36.58 -22.72,60.09 -54.85,60.09 -33.86,0 -58.3,-24.83 -58.3,-63.14 v -105.75 h -30.84 v 108.8 c 0,36.58 -22.71,60.09 -54.84,60.09 -33.86,0 -58.3,-24.83 -58.3,-63.14 v -105.75 h -30.84 v 193.23 h 27.42 v -35.25 c 13.7,24.84 38.56,39.63 70.27,39.63 33,0 59.12,-17.41 70.7,-46.16 12.87,28.75 39,46.16 73.29,46.16 45.43,0 77.13,-32.23 77.13,-82.7" /><path
         id="path54"
         style="fill:#7c9aae;fill-opacity:1;fill-rule:nonzero;stroke:none"
         d="m 7512.61,2836.39 v -193.23 h -27.42 v 35.25 c -13.73,-24.8 -38.57,-39.59 -70.31,-39.59 -45.4,0 -77.13,32.2 -77.13,82.7 v 114.87 h 30.87 v -108.8 c 0,-36.54 22.72,-60.05 54.85,-60.05 33.85,0 58.27,24.8 58.27,63.1 v 105.75 h 30.87" /><path
         id="path56"
         style="fill:#7c9aae;fill-opacity:1;fill-rule:nonzero;stroke:none"
         d="m 7731.44,2758.07 v -114.91 h -30.84 v 108.8 c 0,36.58 -22.72,60.09 -54.85,60.09 -33.86,0 -58.3,-24.83 -58.3,-63.14 v -105.75 h -30.84 v 193.23 h 27.42 v -35.25 c 13.7,24.84 38.58,39.63 70.28,39.63 45.43,0 77.13,-32.23 77.13,-82.7" /><path
         id="path58"
         style="fill:#7c9aae;fill-opacity:1;fill-rule:nonzero;stroke:none"
         d="m 7806.75,2643.16 h -31.27 v 193.23 h 31.27 z m -34.29,269.83 c 0,10.92 7.73,19.17 18.44,19.17 11.14,0 18.84,-8.25 18.84,-19.17 0,-10.41 -7.7,-18.7 -18.84,-18.7 -10.71,0 -18.44,8.29 -18.44,18.7" /><path
         id="path60"
         style="fill:#7c9aae;fill-opacity:1;fill-rule:nonzero;stroke:none"
         d="m 7912.1,2809.43 v -103.59 c 0,-25.24 13.73,-39.17 38.56,-39.17 22.29,0 36.02,6.11 36.02,6.11 v -26.14 c 0,0 -12.43,-7.82 -41.15,-7.82 -40.7,0 -64.27,23.48 -64.27,63.53 v 107.08 h -43.7 v 26.96 h 43.7 v 50.51 h 30.84 v -50.51 h 74.58 v -26.96 h -74.58" /><path
         id="path62"
         style="fill:#7c9aae;fill-opacity:1;fill-rule:nonzero;stroke:none"
         d="m 8056.46,2643.16 h -31.28 v 193.23 h 31.28 z m -34.3,269.83 c 0,10.92 7.73,19.17 18.44,19.17 11.14,0 18.83,-8.25 18.83,-19.17 0,-10.41 -7.69,-18.7 -18.83,-18.7 -10.71,0 -18.44,8.29 -18.44,18.7" /><path
         id="path64"
         style="fill:#7c9aae;fill-opacity:1;fill-rule:nonzero;stroke:none"
         d="m 8124.96,2759.36 h 140.97 c -7.26,33.09 -35.12,55.71 -70.7,55.71 -35.55,0 -62.97,-22.62 -70.27,-55.71 z m 171.85,-23.05 h -173.58 c 0.87,-40.92 31.31,-70.07 72.43,-70.07 29.58,0 53.56,15.66 65.13,39.6 h 30.87 c -13.29,-39.6 -50.14,-67.02 -96.43,-67.02 -58.27,0 -102.4,43.51 -102.4,100.97 0,57.44 44.13,100.98 102.4,100.98 58.3,0 102.01,-43.54 102.01,-100.98 0,-1.75 -0.43,-3.48 -0.43,-3.48" /><path
         id="path66"
         style="fill:#7c9aae;fill-opacity:1;fill-rule:nonzero;stroke:none"
         d="m 8411.07,2638.82 c -53.55,0 -83.96,26.1 -86.55,55.71 h 30.88 c 1.69,-15.69 20.99,-30.91 55.67,-30.91 41.59,0 56.58,17.84 56.58,34.82 0,21.76 -21.86,29.15 -62.54,32.2 -44.14,3.05 -75.44,16.12 -75.44,54.85 0,29.58 25.3,55.28 83.13,55.28 52.73,0 78.86,-26.13 81.41,-55.71 h -30.84 c -2.16,15.65 -17.14,30.91 -50.57,30.91 -40.69,0 -52.26,-16.55 -52.26,-29.62 0,-21.32 21.85,-26.56 58.69,-29.15 48.42,-3.91 79.3,-20.46 79.3,-57.89 0,-33.07 -28.3,-60.49 -87.46,-60.49" /><path
         id="path68"
         style="fill:#8bc0de;fill-opacity:1;fill-rule:nonzero;stroke:none"
         d="m 2151.44,3944.33 c 37.49,11.42 73.49,28.56 110.24,50.16 -5.46,-3.48 -9.93,-8.44 -12.91,-14.4 -19.38,-38.74 -29.3,-82.19 -30.05,-126.39 -53.63,-32.53 -117.44,-50.65 -180.76,-50.41 -63.32,-0.24 -127.13,17.63 -180.77,50.16 -0.74,44.45 -10.68,87.9 -30.04,126.64 -2.98,5.71 -7.21,10.42 -12.17,13.9 36.75,-21.35 72.5,-38.24 109.5,-49.66 37.25,-11.42 75.48,-16.88 113.48,-17.13 38.24,0.25 76.23,5.71 113.48,17.13" /><path
         id="path70"
         style="fill:#8bc0de;fill-opacity:1;fill-rule:nonzero;stroke:none"
         d="m 2038.01,3992.08 c 46.86,0 84.85,74.69 84.85,121.46 0,46.78 -37.99,84.69 -84.85,84.69 -46.87,0 -84.86,-37.91 -84.86,-84.69 0,-46.77 37.99,-121.46 84.86,-121.46" /><path
         id="path72"
         style="fill:#6e7490;fill-opacity:1;fill-rule:nonzero;stroke:none"
         d="m 1528.68,3571.13 c 0.75,0.75 1.5,1.24 2.49,1.74 l 1.49,0.74 c -1.24,-0.74 -2.73,-1.48 -3.98,-2.48" /><path
         id="path74"
         style="fill:#142a36;fill-opacity:1;fill-rule:nonzero;stroke:none"
         d="m 1857.19,3853.45 c -37.99,22.85 -70.76,53.14 -94.6,89.39 -4.22,6.21 -6.21,13.16 -6.21,20.11 v 0.5 c 0,2.48 0.25,4.97 0.75,7.45 0.49,1.99 0.99,3.97 1.74,5.71 l 0.5,1.24 c 0.98,2.24 1.98,4.22 3.46,6.21 l 0.26,0.5 c 0.49,0.99 1.24,1.98 1.98,2.73 l 2.23,2.23 c 1.74,1.74 3.48,3.23 5.47,4.72 l 0.25,0.25 c 1.98,1.24 3.97,2.23 6.45,3.23 l 0.74,0.49 0.76,0.25 c 1.24,0.5 2.48,0.75 3.72,0.99 1.24,0.5 2.23,0.75 3.22,0.75 1.74,0.25 3.49,0.5 5.47,0.5 h 2.24 c 1.24,0 2.48,-0.25 3.72,-0.5 2.97,-0.25 6.21,-1.24 8.93,-2.48 1.5,-0.5 2.99,-1.24 4.47,-2.24 l 2.24,-1.49 c 4.96,-3.48 9.19,-8.19 12.17,-13.9 19.36,-38.74 29.3,-82.19 30.04,-126.64" /><path
         id="path76"
         style="fill:#2a687b;fill-opacity:1;fill-rule:nonzero;stroke:none"
         d="m 1857.19,3853.45 c 1.25,-62.57 -15.15,-126.88 -46.93,-181.76 -31.53,-55.12 -78.96,-101.55 -134.08,-131.6 h -0.25 c -38.73,21.61 -80.95,34.76 -124.15,37.5 -6.46,0.49 -12.67,-0.75 -18.38,-3.73 37,21.11 69.53,43.7 98.08,70.02 28.31,26.57 52.14,56.87 71.26,89.89 19.13,33.03 33.53,68.78 42.22,106.77 8.69,37.99 11.92,77.72 11.42,120.67 v 1.74 c 0,-6.95 1.99,-13.9 6.21,-20.11 23.84,-36.25 56.61,-66.54 94.6,-89.39" /><path
         id="path78"
         style="fill:#2a687b;fill-opacity:1;fill-rule:nonzero;stroke:none"
         d="m 1646.75,3766.19 c 23.43,40.58 -22.26,110.83 -62.77,134.21 -40.5,23.39 -92.33,9.45 -115.77,-31.14 -23.42,-40.58 -9.59,-92.44 30.92,-115.83 40.51,-23.38 124.18,-27.83 147.62,12.76" /><path
         id="path80"
         style="fill:#6e7490;fill-opacity:1;fill-rule:nonzero;stroke:none"
         d="m 1777.87,3083.38 -0.88,0.33 -0.69,0.42 c 0.52,-0.28 1.05,-0.53 1.57,-0.75" /><path
         id="path82"
         style="fill:#d06a1c;fill-opacity:1;fill-rule:nonzero;stroke:none"
         d="m 1675.93,3540.09 c -38.49,-21.6 -80.95,-34.76 -124.15,-37.24 -7.45,-0.5 -14.65,1.49 -20.61,4.96 l -0.5,0.25 c -1.24,0.75 -2.73,1.74 -3.73,2.73 -1.48,1 -2.72,2.24 -3.96,3.48 l -1.5,1.49 c -1.24,1.24 -2.23,2.48 -2.97,3.97 -1,1.49 -1.99,2.98 -2.74,4.47 -1,2.24 -1.74,4.47 -2.48,6.71 -0.5,2.23 -0.99,4.71 -0.99,7.2 -0.25,2.48 0,5.21 0.25,7.44 0.24,1.49 0.5,3.23 0.98,4.97 0.5,1.49 1,2.98 1.74,4.47 0.5,1.24 1,2.48 1.74,3.73 l 0.5,0.74 c 1.24,1.99 2.49,3.73 3.97,5.22 l 2,2.23 c 0.98,1.24 2.22,2.24 3.72,3.23 l 1.48,0.99 c 1.25,1 2.74,1.74 3.98,2.48 l 0.74,0.25 c 5.71,2.98 11.92,4.22 18.38,3.73 43.2,-2.74 85.42,-15.9 124.15,-37.5" /><path
         id="path84"
         style="fill:#6e7490;fill-opacity:1;fill-rule:nonzero;stroke:none"
         d="m 1513.29,3530.91 c -1.24,4.71 -1.48,9.68 -0.74,14.64 -0.17,-1.57 -0.35,-3.38 -0.35,-5.19 0,-0.76 0.03,-1.52 0.1,-2.25 0,-2.49 0.49,-4.97 0.99,-7.2" /><path
         id="path86"
         style="fill:#f4981e;fill-opacity:1;fill-rule:nonzero;stroke:none"
         d="m 1857.19,3226.98 c -37.99,-22.84 -70.76,-52.88 -94.6,-89.14 -3.98,-6.21 -6.21,-13.16 -6.21,-20.36 v 1.99 c 0.5,42.7 -2.73,82.43 -11.42,120.42 -8.69,37.99 -23.09,73.75 -42.22,107.02 -19.12,32.78 -42.95,63.07 -71.26,89.64 -28.55,26.57 -61.58,49.41 -98.82,70.27 l -1.49,0.99 c 5.96,-3.47 13.16,-5.46 20.61,-4.96 43.2,2.48 85.66,15.64 124.15,37.24 h 0.25 c 54.87,-29.79 102.55,-76.23 134.08,-131.35 31.78,-54.63 48.42,-118.94 46.93,-181.76" /><path
         id="path88"
         style="fill:#f4981e;fill-opacity:1;fill-rule:nonzero;stroke:none"
         d="m 1646.75,3314.4 c -23.44,40.59 -107.11,36.14 -147.62,12.75 -40.51,-23.38 -54.34,-75.24 -30.91,-115.82 23.43,-40.59 75.26,-54.53 115.76,-31.15 40.51,23.39 86.2,93.64 62.77,134.22" /><path
         id="path90"
         style="fill:#b4941c;fill-opacity:1;fill-rule:nonzero;stroke:none"
         d="m 1857.19,3226.98 c -0.75,-44.2 -10.68,-87.65 -30.04,-126.63 -2.74,-5.71 -6.95,-10.18 -11.67,-13.66 l -1,-0.49 -0.24,-0.25 -1.5,-1 c -2.98,-1.73 -5.95,-2.97 -8.93,-3.72 -1.24,-0.5 -2.49,-0.75 -3.98,-0.99 -1.98,-0.25 -3.72,-0.5 -5.46,-0.5 -3.73,0 -7.2,0.5 -10.42,1.49 -1.74,0.49 -3.48,0.99 -4.98,1.73 -1.48,0.5 -2.97,1.25 -4.46,2.24 -0.99,0.5 -1.99,1.24 -2.99,1.99 -2.73,1.98 -4.96,4.22 -7.19,6.7 -1.74,2.49 -3.24,4.97 -4.48,7.7 l -0.74,1.74 c -1,2.98 -1.98,5.96 -2.48,8.93 -0.25,1.74 -0.25,3.48 -0.25,5.22 0,7.2 2.23,14.15 6.21,20.36 23.83,36.25 56.61,66.3 94.6,89.14" /><path
         id="path92"
         style="fill:#6e7490;fill-opacity:1;fill-rule:nonzero;stroke:none"
         d="m 1761.93,3097.6 c -0.11,0.17 -0.22,0.34 -0.34,0.51 -0.27,0.46 -0.48,0.88 -0.66,1.29 0.32,-0.61 0.65,-1.21 1,-1.8" /><path
         id="path94"
         style="fill:#5f6162;fill-opacity:1;fill-rule:nonzero;stroke:none"
         d="m 1764.33,3093.89 c -0.86,1.23 -1.66,2.45 -2.4,3.71 0.84,-1.27 1.52,-2.39 2.4,-3.71 m -3.4,5.51 c -0.38,0.72 -0.74,1.44 -1.08,2.19 0.48,-0.79 0.75,-1.48 1.08,-2.19" /><path
         id="path96"
         style="fill:#e6c10e;fill-opacity:1;fill-rule:nonzero;stroke:none"
         d="m 2261.68,3085.95 c -36.75,21.85 -72.75,38.98 -110.24,50.4 -37.25,11.42 -75.24,16.89 -113.48,16.89 -38,0 -76.23,-5.47 -113.48,-16.89 -37,-11.42 -72.25,-28.3 -109,-49.66 4.72,3.48 8.93,7.95 11.67,13.66 19.36,38.98 29.3,82.43 30.04,126.63 53.64,32.53 117.45,50.66 180.77,50.41 63.56,0.25 127.37,-17.88 181.01,-50.41 0.75,-44.44 10.42,-87.65 29.8,-126.63 2.98,-5.71 7.45,-10.68 12.91,-14.4" /><path
         id="path98"
         style="fill:#6e7490;fill-opacity:1;fill-rule:nonzero;stroke:none"
         d="m 2303.15,3086.2 c 5.71,3.97 10.17,9.43 12.9,15.64 -2.48,-6.21 -6.95,-11.67 -12.9,-15.64" /><path
         id="path100"
         style="fill:#e6c10e;fill-opacity:1;fill-rule:nonzero;stroke:none"
         d="m 2038.01,3088.51 c -46.87,0 -84.86,-74.7 -84.86,-121.47 0,-46.77 37.99,-84.68 84.86,-84.68 46.86,0 84.85,37.91 84.85,84.68 0,46.77 -38,121.47 -84.85,121.47" /><path
         id="path102"
         style="fill:#97391d;fill-opacity:1;fill-rule:nonzero;stroke:none"
         d="m 2319.53,3119.47 v -3.23 c 0,-1.99 -0.24,-3.73 -0.5,-5.46 -0.49,-3.23 -1.48,-6.21 -2.98,-8.94 -2.73,-6.21 -7.19,-11.67 -12.91,-15.64 -3.47,-2.24 -7.19,-3.98 -11.42,-5.22 -1.24,-0.5 -2.73,-0.74 -4.22,-0.74 -1.48,-0.25 -3.23,-0.5 -4.96,-0.5 h -0.25 c -3.23,0 -6.46,0.5 -9.69,1.24 -3.97,1.24 -7.44,2.73 -10.92,4.97 -5.46,3.72 -9.93,8.69 -12.91,14.4 -19.38,38.98 -29.05,82.19 -29.8,126.63 37.99,-22.84 70.77,-53.13 94.6,-89.14 3.48,-5.71 5.46,-12.16 5.96,-18.37" /><path
         id="path104"
         style="fill:#de4e26;fill-opacity:1;fill-rule:nonzero;stroke:none"
         d="m 2524.38,3502.85 c 6.46,-0.25 13.16,0.99 18.87,3.97 -37.24,-21.11 -70.02,-43.7 -98.57,-70.27 -28.56,-26.57 -52.39,-56.86 -71.52,-89.64 -18.86,-33.27 -33.27,-69.03 -41.96,-107.02 -8.93,-37.99 -12.17,-77.72 -11.67,-120.42 -0.5,6.21 -2.48,12.66 -5.96,18.37 -23.83,36.01 -56.61,66.3 -94.6,89.14 -1.49,62.82 14.9,127.13 46.67,181.76 31.55,55.12 78.97,101.31 133.85,131.6 38.98,-21.6 81.69,-34.76 124.89,-37.49" /><path
         id="path106"
         style="fill:#de4e26;fill-opacity:1;fill-rule:nonzero;stroke:none"
         d="m 2429.27,3314.4 c -23.44,-40.58 22.25,-110.83 62.76,-134.22 40.5,-23.38 92.34,-9.44 115.76,31.15 23.44,40.58 9.59,92.44 -30.91,115.82 -40.5,23.39 -124.18,27.83 -147.61,-12.75" /><path
         id="path108"
         style="fill:#286e7a;fill-opacity:1;fill-rule:nonzero;stroke:none"
         d="m 2563.86,3539.35 c 0,-2.48 -0.25,-4.97 -0.99,-7.2 -0.24,-2.49 -1.24,-5.22 -2.73,-7.7 -0.25,-0.99 -0.75,-1.98 -1.49,-2.98 l -0.75,-1.24 c -0.5,-0.99 -0.99,-1.74 -1.74,-2.48 l -1.48,-1.74 -1.99,-2.24 c -2.73,-2.98 -5.96,-5.21 -9.44,-6.95 -5.71,-2.98 -12.41,-4.22 -18.87,-3.97 -43.2,2.73 -85.91,15.89 -124.89,37.49 38.98,21.35 81.44,34.51 124.89,37.25 6.7,0.49 13.41,-1 18.87,-3.98 1.24,-0.49 2.24,-1.24 3.48,-1.98 1.99,-1.24 3.73,-2.48 5.47,-4.22 1.48,-1.24 2.72,-2.73 4.21,-4.47 4.98,-6.71 7.7,-15.15 7.45,-23.59" /><path
         id="path110"
         style="fill:#215369;fill-opacity:1;fill-rule:nonzero;stroke:none"
         d="m 2319.53,3963.2 v -2.48 c -0.24,-6.21 -2.48,-12.42 -5.96,-17.88 -23.83,-36.25 -56.86,-66.3 -94.85,-89.14 0.75,44.2 10.67,87.65 30.05,126.39 2.98,5.96 7.45,10.92 12.91,14.4 l 1.74,0.99 c 1.48,1 2.98,1.74 4.47,2.24 9.68,4.22 20.85,3.97 31.04,-1 l 1.49,-0.74 c 2.72,-1.49 4.96,-3.23 7.2,-5.22 1.24,-1.24 2.48,-2.48 3.47,-3.72 2.23,-2.48 3.97,-5.46 5.22,-8.44 1.48,-3.23 2.48,-6.46 2.98,-9.69 0.24,-1.98 0.24,-3.72 0.24,-5.71" /><path
         id="path112"
         style="fill:#3ca2af;fill-opacity:1;fill-rule:nonzero;stroke:none"
         d="m 2543.25,3573.61 c -5.46,2.98 -12.17,4.47 -18.87,3.98 -43.45,-2.74 -85.91,-15.9 -124.89,-37.25 -54.88,30.05 -102.3,76.48 -133.84,131.35 -31.78,54.88 -48.42,119.19 -46.93,182.01 37.99,22.84 71.02,52.89 94.85,89.14 3.48,5.47 5.72,11.67 5.96,17.88 -0.24,-42.71 2.98,-82.44 11.67,-120.18 8.69,-37.99 23.1,-73.74 41.96,-106.77 19.13,-33.03 42.96,-63.32 71.52,-89.89 28.55,-26.56 61.33,-49.16 98.57,-70.27" /><path
         id="path114"
         style="fill:#6e7490;fill-opacity:1;fill-rule:nonzero;stroke:none"
         d="m 2546.73,3571.63 c -1.12,0.67 -2.04,1.34 -3.12,1.83 l 1.38,-0.59 1.74,-1.24" /><path
         id="path116"
         style="fill:#3a5a75;fill-opacity:1;fill-rule:nonzero;stroke:none"
         d="m 2546.73,3571.63 c -1.12,0.67 -2.04,1.34 -3.12,1.83 v 0 c 1.08,-0.49 2,-1.16 3.12,-1.83 v 0 m -3.12,1.83 -0.36,0.15 c 0.12,-0.04 0.24,-0.09 0.36,-0.15" /><path
         id="path118"
         style="fill:#6e7490;fill-opacity:1;fill-rule:nonzero;stroke:none"
         d="m 2558.65,3521.47 c 0.74,1 1.24,1.99 1.49,2.98 -0.25,-0.99 -0.5,-1.74 -0.99,-2.48 l -0.5,-0.5" /><path
         id="path120"
         style="fill:#3ca2af;fill-opacity:1;fill-rule:nonzero;stroke:none"
         d="m 2429.27,3766.19 c 23.43,-40.59 107.11,-36.14 147.61,-12.76 40.5,23.39 54.35,75.25 30.91,115.83 -23.42,40.59 -75.26,54.53 -115.76,31.14 -40.51,-23.38 -86.2,-93.63 -62.76,-134.21" /><path
         id="path122"
         style="fill:#162530;fill-opacity:1;fill-rule:nonzero;stroke:none"
         d="m 2839.79,3906.12 537.41,-0.01 v -140.14 l -387.34,0.01 -0.01,-149.42 336.63,-0.01 v -125.7 l -336.63,0.01 V 3325 l 397.46,-0.02 v -140.14 l -547.53,0.02 0.01,721.26" /><path
         id="path124"
         style="fill:#162530;fill-opacity:1;fill-rule:nonzero;stroke:none"
         d="m 4215.84,3478.49 -0.01,-293.67 -137.89,0.01 0.01,260.68 c 0,57.69 -34.47,93.77 -84.16,93.77 -53.74,0 -90.24,-37.1 -90.24,-97.88 l -0.01,-256.57 -137.91,0.01 0.01,260.68 c 0,57.68 -34.47,93.76 -84.16,93.77 -53.73,0 -90.23,-37.1 -90.23,-97.88 l -0.01,-256.57 h -137.9 l 0.02,465.72 118.63,-0.01 -0.01,-76.23 c 30.42,55.64 86.19,86.56 159.19,86.56 68.95,-0.01 123.71,-33 152.1,-88.64 29.4,56.67 86.18,88.63 160.21,88.63 101.39,-0.01 172.36,-71.11 172.36,-182.38" /><path
         id="path126"
         style="fill:#162530;fill-opacity:1;fill-rule:nonzero;stroke:none"
         d="m 4654.03,3417.67 c 0.01,65.94 -47.64,113.34 -112.54,113.34 -64.89,0 -112.55,-47.39 -112.55,-113.34 0,-65.94 47.65,-113.33 112.54,-113.34 64.9,0 112.55,47.39 112.55,113.34 z m 137.9,-0.01 c -0.01,-141.15 -97.34,-243.14 -222.06,-243.14 -73.01,0 -126.74,34.01 -160.2,89.63 v -79.33 h -118.63 l 0.01,721.26 h 137.91 l -0.01,-316.33 c 28.38,45.32 74.02,71.1 140.93,71.1 124.72,0 222.05,-102.02 222.05,-243.19" /><path
         id="path128"
         style="fill:#162530;fill-opacity:1;fill-rule:nonzero;stroke:none"
         d="M 5145.92,3660.84 V 3520.7 h -30.42 c -77.06,0 -124.72,-45.32 -124.72,-136 l -0.01,-199.9 -137.89,0.01 0.01,465.71 h 106.46 v -88.61 c 29.41,63.87 89.23,98.93 170.36,98.93 h 16.21" /><path
         id="path130"
         style="fill:#162530;fill-opacity:1;fill-rule:nonzero;stroke:none"
         d="m 5505.94,3417.65 c 0,65.94 -47.66,113.34 -112.55,113.34 -64.89,0 -112.55,-47.4 -112.56,-113.34 0,-65.94 47.66,-113.33 112.55,-113.34 64.89,0 112.55,47.39 112.56,113.34 z m 137.9,232.85 -0.02,-465.71 H 5525.2 v 79.33 c -33.47,-55.62 -87.21,-89.62 -160.22,-89.62 -124.71,0 -222.04,102 -222.04,243.16 0,141.16 97.34,243.18 222.06,243.17 73,0 126.74,-31.97 160.21,-86.57 v 76.24 h 118.63" /><path
         id="path132"
         style="fill:#162530;fill-opacity:1;fill-rule:nonzero;stroke:none"
         d="m 5955.23,3660.82 c 127.77,-0.01 219.01,-82.46 237.26,-197.84 h -135.87 c -17.24,42.24 -51.71,69.04 -101.39,69.04 -64.89,0 -112.55,-48.44 -112.55,-114.38 0,-65.94 47.65,-114.36 112.54,-114.36 51.71,0 87.19,28.84 103.43,73.14 h 135.86 c -18.24,-118.5 -109.5,-201.94 -239.29,-201.94 -142.96,0.01 -250.44,104.07 -250.43,243.16 0,139.09 107.48,243.18 250.44,243.18" /><path
         id="path134"
         style="fill:#162530;fill-opacity:1;fill-rule:nonzero;stroke:none"
         d="m 6379.15,3481.5 218.01,-0.01 c -16.22,45.35 -56.78,75.22 -109.51,75.22 -51.71,0 -92.27,-29.86 -108.5,-75.21 z m 352.86,-87.57 -358.94,0.01 c 5.07,-61.83 50.7,-103.04 115.59,-103.04 48.66,0 85.17,23.68 103.42,58.71 l 131.82,-0.01 c -27.38,-103.01 -118.64,-175.13 -237.27,-175.13 -142.97,0 -250.44,104.07 -250.44,243.16 0.01,139.09 107.48,243.18 250.45,243.17 142.97,0 247.4,-104.09 247.39,-243.18 0,-11.32 -2.02,-23.69 -2.02,-23.69" /><path
         id="path136"
         style="fill:#162530;fill-opacity:1;fill-rule:nonzero;stroke:none"
         d="m 6930.91,3906.11 527.26,-0.01 v -139.12 l -377.2,0.01 v -167.93 l 326.49,-0.01 v -125.7 h -326.49 l -0.01,-288.5 h -150.07 l 0.02,721.26" /><path
         id="path138"
         style="fill:#162530;fill-opacity:1;fill-rule:nonzero;stroke:none"
         d="m 7829.38,3417.69 c 0,65.94 -47.65,113.33 -112.54,113.34 -64.9,0 -112.56,-47.4 -112.56,-113.34 0,-65.94 47.65,-113.34 112.55,-113.34 64.89,0 112.55,47.39 112.55,113.34 z m 137.9,232.85 -0.01,-465.71 h -118.64 l 0.01,79.33 c -33.47,-55.62 -87.2,-89.63 -160.21,-89.62 -124.71,0 -222.05,101.99 -222.04,243.16 0,141.16 97.34,243.18 222.06,243.17 73,0 126.73,-31.97 160.19,-86.57 l 0.01,76.24 h 118.63" /><path
         id="path140"
         style="fill:#162530;fill-opacity:1;fill-rule:nonzero;stroke:none"
         d="M 8809.98,3478.47 V 3184.8 l -137.9,0.01 0.01,260.68 c 0,57.69 -34.47,93.77 -84.16,93.77 -53.73,0 -90.23,-37.1 -90.23,-97.88 l -0.01,-256.57 -137.91,0.01 0.01,260.68 c 0,57.68 -34.48,93.76 -84.16,93.77 -53.74,0 -90.24,-37.1 -90.24,-97.88 l -0.01,-256.57 h -137.89 l 0.01,465.72 118.63,-0.01 v -76.23 c 30.42,55.64 86.18,86.56 159.18,86.55 68.96,0 123.71,-32.99 152.1,-88.63 29.41,56.67 86.18,88.63 160.21,88.63 101.39,-0.01 172.37,-71.11 172.36,-182.38" /><path
         id="path142"
         style="fill:#162530;fill-opacity:1;fill-rule:nonzero;stroke:none"
         d="m 9028.14,3184.8 h -138.91 l 0.02,465.72 138.91,-0.01 z m -150.04,627.5 c 0,44.3 34.47,80.35 80.1,80.35 45.63,-0.01 81.11,-36.06 81.11,-80.36 0,-44.3 -35.48,-79.33 -81.12,-79.32 -45.62,0 -80.09,35.02 -80.09,79.33" /><path
         id="path144"
         style="fill:#162530;fill-opacity:1;fill-rule:nonzero;stroke:none"
         d="m 9254.29,3184.79 -138.92,0.01 0.02,721.26 138.92,-0.01 -0.02,-721.26" /><path
         id="path146"
         style="fill:#162530;fill-opacity:1;fill-rule:nonzero;stroke:none"
         d="m 9480.43,3184.79 h -138.92 l 0.02,465.71 h 138.92 z m -150.05,627.49 c 0,44.31 34.47,80.35 80.1,80.35 45.63,0 81.11,-36.05 81.11,-80.35 0,-44.3 -35.48,-79.33 -81.11,-79.33 -45.63,0 -80.1,35.03 -80.1,79.33" /><path
         id="path148"
         style="fill:#162530;fill-opacity:1;fill-rule:nonzero;stroke:none"
         d="m 9687.29,3481.51 h 218.02 c -16.23,45.35 -56.78,75.21 -109.52,75.21 -51.71,0.01 -92.26,-29.86 -108.5,-75.21 z m 352.91,-87.56 -358.99,0.01 c 5.08,-61.83 50.7,-103.05 115.6,-103.05 48.66,0 85.16,23.68 103.42,58.71 H 10032 c -27.3,-103.02 -118.59,-175.14 -237.22,-175.14 -142.97,0.01 -250.44,104.07 -250.44,243.16 0.01,139.09 107.49,243.18 250.45,243.18 142.97,-0.01 247.41,-104.1 247.41,-243.19 0,-11.32 -2,-23.68 -2,-23.68" /><path
         id="path150"
         style="fill:#162530;fill-opacity:1;fill-rule:nonzero;stroke:none"
         d="m 10318.1,3174.47 c -139.9,0 -215,59.76 -224.1,148.37 h 135.9 c 6.1,-30.92 37.5,-49.47 89.2,-49.47 58.8,0 86.2,21.64 86.2,46.37 0,35.03 -43.6,44.3 -120.7,50.49 -109.5,9.28 -181.5,50.49 -181.5,146.33 0,84.49 69,144.25 218,144.24 136.9,0 206.9,-59.76 215,-148.4 l -135.9,0.01 c -7.1,30.91 -30.4,49.46 -80.1,49.46 -56.8,0 -79.1,-18.54 -79.1,-39.13 0,-35.06 42.6,-40.19 115.6,-46.38 116.6,-9.28 186.6,-57.72 186.6,-151.46 0,-88.63 -74,-150.44 -225.1,-150.43" /></g></g></svg>